<?xml version="1.0" encoding="UTF-8"?>
<svg width="15px" height="14px" viewBox="0 0 15 14" version="1.1" xmlns="http://www.w3.org/2000/svg" xmlns:xlink="http://www.w3.org/1999/xlink">
    <title>编组</title>
    <g id="页面-1" stroke="none" stroke-width="1" fill="none" fill-rule="evenodd">
        <g id="编组" transform="translate(0, 0.5523)" fill="#000000">
            <g id="livepaper" transform="translate(0, 2.702)" fill-rule="nonzero">
                <path d="M0.592818128,9.40779855 C0.592818128,9.40779855 4.08692121,7.06803704 7.39137261,8.8587013 C7.39137261,8.8587013 12.2516782,11.0740347 14.4309626,8.80504492 C14.6803548,8.42680938 14.8434352,7.83854407 14.9202037,7.04024896 C15.1154608,5.00982113 14.9523805,3.49455169 14.4309626,2.49444066 C14.4309626,2.49444066 13.5680918,5.4018202 11.4480674,5.11823259 C11.4480674,5.11823259 10.0708153,4.97622699 10.4343335,3.48761341 C10.4343335,3.48761341 10.7598688,2.45000615 11.6831671,2.92003386 C11.7286151,2.31726096 10.1498231,1.33750714 9.16213472,3.09813767 C9.16213472,3.09813767 8.61693953,4.78100783 7.51148754,4.83422141 C6.49772081,4.97624626 4.89288336,3.62919544 5.34721543,2.28168255 C5.34721543,2.28168255 5.65380858,1.15154835 6.83116512,1.6081379 C6.83116512,1.6081379 7.17840497,1.76774015 7.22383653,2.17573669 C7.36805667,2.1225231 7.16382016,-0.376840672 4.07585518,0.0487525366 C0.986295237,0.473383114 -1.07206854,5.18854229 0.592818128,9.40779855 Z" id="路径"></path>
            </g>
            <path d="M9.0444157,3.63817435 C9.42153404,1.93178923 9.73966401,2.24887739 9.86846924,1.46970048 C9.86846924,0.953343063 9.54266778,0.748454357 9.16556523,0.69248091 C8.78846267,0.636507462 8.23062239,0.926206095 8.23062239,1.64036741 C8.23062239,2.35452872 8.58931969,2.99443235 9.0444157,3.63817435 Z" id="椭圆形"></path>
            <path d="M12.1948388,1.99850374 C12.4330311,0.92073143 12.6339656,1.12100793 12.7153205,0.628870903 C12.7153205,0.302733663 12.5095405,0.173323619 12.2713583,0.13797015 C12.033176,0.102616682 11.6808377,0.285593645 11.6808377,0.73666608 C11.6808377,1.18773852 11.907395,1.59190895 12.1948388,1.99850374 Z" id="椭圆形备份" transform="translate(12.1981, 1.0661) rotate(30) translate(-12.1981, -1.0661)"></path>
            <path d="M12.7120802,4.58471064 C12.9502725,3.50693833 13.151207,3.70721483 13.2325618,3.2150778 C13.2325618,2.88894056 13.0267819,2.75953052 12.7885996,2.72417705 C12.5504174,2.68882358 12.1980791,2.87180054 12.1980791,3.32287298 C12.1980791,3.77394541 12.4246364,4.17811584 12.7120802,4.58471064 Z" id="椭圆形备份-2" transform="translate(12.7153, 3.6523) scale(-1, 1) rotate(-50) translate(-12.7153, -3.6523)"></path>
        </g>
    </g>
</svg>