<?xml version="1.0" encoding="UTF-8"?>
<svg width="19px" height="19px" viewBox="0 0 19 19" version="1.1" xmlns="http://www.w3.org/2000/svg" xmlns:xlink="http://www.w3.org/1999/xlink">
    <title>风车</title>
    <g id="页面-1" stroke="none" stroke-width="1" fill="none" fill-rule="evenodd">
        <g id="风车" transform="translate(0.3962, 0.1592)" fill="#000000" fill-rule="nonzero">
            <path d="M13.839318,8.36708619 C13.9994118,8.82627085 14.732493,11.0214825 14.5451141,12.202956 C14.2069072,14.2985123 11.7620915,17.992262 11.7620915,17.992262 C11.731982,18.052481 11.6987671,18.096508 11.6652574,18.1285586 L9.7538474,10.4640786 C10.0606658,10.2849683 10.2925999,10.004643 10.4128034,9.66455495 C10.4652253,9.5154024 10.4930407,9.36330651 10.4983597,9.21279834 L13.839318,8.36708619 Z M7.66694611,9.93002218 C7.84174846,10.2254733 8.1165803,10.4637805 8.46440098,10.5874824 C8.62980017,10.6470261 8.80181533,10.676798 8.97383049,10.676798 L8.864,10.67 L9.68167582,13.9438364 C9.32585914,14.0694625 7.02644934,14.8566474 5.80699776,14.6632452 C3.89106051,14.3540275 0.639164129,12.2838567 0.095772452,11.9312421 L0.0266142199,11.8861037 L0.0176917296,11.8802226 L0.001,11.87 Z M6.20448401,-0.000382282854 L8.16497873,7.86421556 C7.8757422,8.04386635 7.65700283,8.31552447 7.5414735,8.64238795 C7.49478635,8.77366122 7.46725114,8.90721449 7.45741416,9.0399586 L4.07176257,9.89712461 C4.06567337,9.88143108 4.06050857,9.86530152 4.05627978,9.8487708 C4.05627978,9.8487708 3.11018472,7.25143037 3.32018245,5.92733938 C3.65838933,3.83178302 6.10320509,0.140243856 6.10541559,0.138033354 C6.13619421,0.0764761226 6.1702177,0.0318386087 6.20448401,-0.000382282854 Z M12.0649303,3.48031312 C14.0407406,3.7991939 17.4373121,5.99080697 17.8208929,6.24394139 L17.8564468,6.26775676 C17.9213889,6.30022781 17.9674994,6.3363104 18.0000658,6.37247951 L10.256361,8.33157508 C10.0806159,8.05714173 9.81641141,7.8367688 9.48656798,7.71946046 C9.34299478,7.66871476 9.19525374,7.63973439 9.04733006,7.63251935 L8.19113695,4.19940968 C8.5498626,4.07279752 10.8464849,3.28707052 12.0649303,3.48031312 Z" id="形状结合"></path>
        </g>
    </g>
</svg>